<svg width="13" height="13" viewBox="0 0 13 13" fill="none" xmlns="http://www.w3.org/2000/svg">
<path d="M3.45824 0.40625C3.20433 0.40625 2.97484 0.489258 2.76976 0.655273L2.74046 0.669922L1.26097 2.19336L1.27562 2.20801C1.05101 2.41309 0.904527 2.65967 0.836167 2.94775C0.767808 3.23584 0.782456 3.5166 0.880113 3.79004V3.80469C1.14378 4.56641 1.51 5.34766 1.97875 6.14844C2.63304 7.25195 3.39964 8.24316 4.27855 9.12207C5.72386 10.5674 7.49632 11.7002 9.59593 12.5205H9.61058C9.89378 12.6182 10.1794 12.6377 10.4675 12.5791C10.7556 12.5205 11.0119 12.3936 11.2366 12.1982L12.716 10.7188C12.9114 10.5234 13.009 10.2817 13.009 9.99365C13.009 9.70557 12.9114 9.46387 12.716 9.26855L10.8118 7.36426L10.7971 7.33496C10.6018 7.13965 10.3577 7.04199 10.0647 7.04199C9.77171 7.04199 9.52757 7.13965 9.33226 7.33496L8.39476 8.27246C7.6721 7.9209 7.03246 7.48145 6.47582 6.9541C5.93871 6.44629 5.50414 5.81152 5.1721 5.0498L6.1096 4.1123C6.30492 3.91699 6.40257 3.67773 6.40257 3.39453C6.40257 3.11133 6.30003 2.87207 6.09496 2.67676L6.1096 2.66211L4.19066 0.68457L4.14671 0.655273C3.94164 0.489258 3.71214 0.40625 3.45824 0.40625ZM3.45824 1.34375C3.48753 1.34375 3.52171 1.3584 3.56078 1.3877L5.47972 3.35059C5.48949 3.38965 5.47972 3.42383 5.45042 3.45312L4.27855 4.625L4.05882 4.83008L4.16136 5.12305L4.33714 5.5332C4.50316 5.875 4.68871 6.20215 4.89378 6.51465C5.18675 6.94434 5.49925 7.32031 5.83128 7.64258L5.93382 7.73047C6.25609 8.02344 6.6223 8.30176 7.03246 8.56543C7.32542 8.76074 7.62816 8.93652 7.94066 9.09277L8.59984 9.40039L10.0061 7.99414C10.0354 7.96484 10.0549 7.9502 10.0647 7.9502C10.0744 7.9502 10.094 7.96484 10.1233 7.99414L12.0862 9.95703C12.1057 9.97656 12.1155 9.98877 12.1155 9.99365C12.1155 9.99854 12.1057 10.0107 12.0862 10.0303L10.6213 11.4951C10.4162 11.6709 10.177 11.7148 9.90355 11.627C7.92113 10.8457 6.26585 9.79102 4.93773 8.46289C4.11742 7.64258 3.39964 6.70996 2.78441 5.66504C2.34496 4.90332 2.00316 4.17578 1.75902 3.48242C1.71996 3.38477 1.71507 3.2749 1.74437 3.15283C1.77367 3.03076 1.82738 2.93555 1.9055 2.86719L3.3557 1.3877C3.39476 1.3584 3.42894 1.34375 3.45824 1.34375Z" fill="#667085"/>
</svg>
