<svg width="19" height="26" viewBox="0 0 19 26" fill="none" xmlns="http://www.w3.org/2000/svg">
<path d="M8.0293 12.4375C9.37305 12.8125 10.0293 13.8438 10.0293 15.2188C10.0293 17.4688 8.1543 18.4375 6.12305 18.4375H0.779297V7.375H5.99805C7.87305 7.375 9.5293 7.90625 9.5293 10.125C9.5293 11.2188 8.99805 11.9375 8.0293 12.4375ZM3.18555 9.25V11.8438H5.6543C6.5293 11.8438 7.1543 11.4688 7.1543 10.5312C7.1543 9.5 6.37305 9.25 5.49805 9.25H3.18555ZM5.81055 16.5625C6.7793 16.5625 7.5918 16.2188 7.5918 15.0938C7.5918 13.9688 6.93555 13.5 5.8418 13.5H3.18555V16.5625H5.81055ZM16.998 9.03125H12.5293V7.9375H16.998V9.03125ZM18.7793 14.5625C18.7793 14.6875 18.748 14.8438 18.748 14.9688H12.9668C12.9668 16.25 13.6543 17 14.9355 17C15.5918 17 16.4668 16.6562 16.6855 15.9688H18.623C18.0293 17.7812 16.7793 18.6562 14.873 18.6562C12.3418 18.6562 10.748 16.9375 10.748 14.4375C10.748 12.0312 12.4043 10.1875 14.873 10.1875C17.373 10.1875 18.7793 12.1875 18.7793 14.5625ZM12.9668 13.5625H16.5605C16.4668 12.5 15.9043 11.875 14.7793 11.875C13.748 11.875 13.0293 12.5312 12.9668 13.5625Z" fill="white" fill-opacity="0.6"/>
<a href="https://www.figma.com/design/twRp4z773CmHIRktjIzEtx/React-Machine-Test---Advertising-Website-Design?node-id=1-1802">
<rect fill="black" fill-opacity="0" y="-1.2" width="18" height="18.4"/>
</a>
</svg>
