<svg width="17" height="26" viewBox="0 0 17 26" fill="none" xmlns="http://www.w3.org/2000/svg">
<path d="M14.7334 9.75C14.7334 9.90625 14.7334 10.0312 14.7334 10.1875C14.7334 14.5312 11.4521 19.5 5.4209 19.5C3.5459 19.5 1.82715 18.9688 0.389648 18.0312C0.639648 18.0625 0.889648 18.0938 1.1709 18.0938C2.70215 18.0938 4.1084 17.5625 5.2334 16.6875C3.7959 16.6562 2.57715 15.7188 2.1709 14.4062C2.38965 14.4375 2.57715 14.4688 2.7959 14.4688C3.07715 14.4688 3.38965 14.4062 3.63965 14.3438C2.13965 14.0312 1.01465 12.7188 1.01465 11.125V11.0938C1.45215 11.3438 1.9834 11.4688 2.51465 11.5C1.6084 10.9062 1.0459 9.90625 1.0459 8.78125C1.0459 8.15625 1.20215 7.59375 1.4834 7.125C3.1084 9.09375 5.5459 10.4062 8.26465 10.5625C8.20215 10.3125 8.1709 10.0625 8.1709 9.8125C8.1709 8 9.63965 6.53125 11.4521 6.53125C12.3896 6.53125 13.2334 6.90625 13.8584 7.5625C14.5771 7.40625 15.2959 7.125 15.9209 6.75C15.6709 7.53125 15.1709 8.15625 14.4834 8.5625C15.1396 8.5 15.7959 8.3125 16.3584 8.0625C15.9209 8.71875 15.3584 9.28125 14.7334 9.75Z" fill="white" fill-opacity="0.6"/>
<a href="https://www.figma.com/design/twRp4z773CmHIRktjIzEtx/React-Machine-Test---Advertising-Website-Design?node-id=1-1802">
<rect fill="black" fill-opacity="0" y="-1.2" width="16" height="18.4"/>
</a>
</svg>
