<svg width="37" height="37" viewBox="0 0 37 37" fill="none" xmlns="http://www.w3.org/2000/svg">
<rect x="0.97998" y="0.839844" width="35" height="35" rx="17.5" fill="white"/>
<rect x="0.97998" y="0.839844" width="35" height="35" rx="17.5" stroke="#E1E1E1"/>
<path d="M20.2802 18.7868C20.2802 19.2642 20.0905 19.722 19.753 20.0596C19.4154 20.3972 18.9576 20.5868 18.4802 20.5868C18.0028 20.5868 17.5449 20.3972 17.2074 20.0596C16.8698 19.722 16.6802 19.2642 16.6802 18.7868C16.6802 18.3094 16.8698 17.8516 17.2074 17.514C17.5449 17.1765 18.0028 16.9868 18.4802 16.9868C18.9576 16.9868 19.4154 17.1765 19.753 17.514C20.0905 17.8516 20.2802 18.3094 20.2802 18.7868Z" stroke="black" stroke-linecap="round" stroke-linejoin="round"/>
<path d="M12.48 18.7869C13.44 16.3287 15.6816 14.5869 18.48 14.5869C21.2784 14.5869 23.52 16.3287 24.48 18.7869C23.52 21.2451 21.2784 22.9869 18.48 22.9869C15.6816 22.9869 13.44 21.2451 12.48 18.7869Z" stroke="black" stroke-linecap="round" stroke-linejoin="round"/>
</svg>
