<svg width="44" height="45" viewBox="0 0 44 45" fill="none" xmlns="http://www.w3.org/2000/svg">
<path opacity="0.1" d="M7.56943 31.3637C4.41503 28.2073 2.83682 26.6311 2.25085 24.5833C1.66285 22.5355 2.1651 20.3611 3.16961 16.0144L3.7474 13.5072C4.59062 9.8485 5.01325 8.01916 6.26479 6.76557C7.51838 5.51402 9.34773 5.09139 13.0064 4.24818L15.5136 3.66834C19.8624 2.66588 22.0347 2.16362 24.0825 2.74959C26.1303 3.33759 27.7065 4.91581 30.8609 8.0702L34.5972 11.8065C40.0913 17.2986 42.8333 20.0426 42.8333 23.4522C42.8333 26.8639 40.0872 29.6079 34.5972 35.0979C29.1071 40.5921 26.3631 43.3341 22.9514 43.3341C19.5418 43.3341 16.7958 40.588 11.3057 35.0979L7.56943 31.3637Z" stroke="#212121" stroke-width="2.125"/>
<path d="M29.3385 29.8386C30.5329 28.6401 30.6942 26.8638 29.6978 25.8654C28.7015 24.869 26.9232 25.0304 25.7268 26.2269C24.5324 27.4233 22.7541 27.5846 21.7577 26.5882C20.7614 25.5919 20.9227 23.8135 22.1191 22.6192M22.1191 22.6192L21.3964 21.8964M22.1191 22.6192C22.7949 21.9414 23.6565 21.5984 24.4589 21.6045M30.0592 30.5592L29.3365 29.8365C28.5198 30.6553 27.4275 30.9901 26.5006 30.7982" stroke="#212121" stroke-width="2.125" stroke-linecap="round"/>
<path d="M18.376 19.4326C19.9706 17.8379 19.9706 15.2525 18.376 13.6579C16.7813 12.0632 14.1959 12.0632 12.6012 13.6579C11.0066 15.2525 11.0066 17.8379 12.6012 19.4326C14.1959 21.0272 16.7813 21.0272 18.376 19.4326Z" stroke="#212121" stroke-width="2.125"/>
</svg>
