<svg width="19" height="26" viewBox="0 0 19 26" fill="none" xmlns="http://www.w3.org/2000/svg">
<path d="M17.3262 8.90625C17.7012 10.2188 17.7012 13.0312 17.7012 13.0312C17.7012 13.0312 17.7012 15.8125 17.3262 17.1562C17.1387 17.9062 16.5449 18.4688 15.8262 18.6562C14.4824 19 9.16992 19 9.16992 19C9.16992 19 3.82617 19 2.48242 18.6562C1.76367 18.4688 1.16992 17.9062 0.982422 17.1562C0.607422 15.8125 0.607422 13.0312 0.607422 13.0312C0.607422 13.0312 0.607422 10.2188 0.982422 8.90625C1.16992 8.15625 1.76367 7.5625 2.48242 7.375C3.82617 7 9.16992 7 9.16992 7C9.16992 7 14.4824 7 15.8262 7.375C16.5449 7.5625 17.1387 8.15625 17.3262 8.90625ZM7.41992 15.5625L11.8574 13.0312L7.41992 10.5V15.5625Z" fill="white" fill-opacity="0.6"/>
<a href="https://www.figma.com/design/twRp4z773CmHIRktjIzEtx/React-Machine-Test---Advertising-Website-Design?node-id=1-1802">
<rect fill="black" fill-opacity="0" y="-1.2" width="18" height="18.4"/>
</a>
</svg>
